<?xml version="1.0" encoding="utf-8"?>
<!-- Generator: Adobe Illustrator 14.0.0, SVG Export Plug-In . SVG Version: 6.00 Build 43363)  -->
<!DOCTYPE svg PUBLIC "-//W3C//DTD SVG 1.1//EN" "http://www.w3.org/Graphics/SVG/1.1/DTD/svg11.dtd">
<svg version="1.1" xmlns="http://www.w3.org/2000/svg" xmlns:xlink="http://www.w3.org/1999/xlink" x="0px"
	 y="0px" width="16px" height="16px" viewBox="0 0 16 16" enable-background="new 0 0 16 16" xml:space="preserve">
<style>
	:root {
		color-scheme: light dark;
	}
	g:target {
		fill-rule: evenodd;
	}
	g.theme:target {
		fill: transparent /* TO BE REPLACED WITH THEME COLOR */;
	}
	g.prefer-color-scheme:target {
		fill: #0C0C0D;
	}
	@media (prefers-color-scheme: dark) {
		g.prefer-color-scheme:target {
			fill: #F9F9FA;
		}
	}
	g.mask {
		fill: black;
	}
	g:not(:target) {
		display: none;
	}
</style>
<symbol id="icon">
<path d="M9.03,10.533c-0.242,0.131-0.53,0.203-0.821,0.203c-0.1,0-0.2-0.008-0.298-0.025
	c-0.534-0.092-0.963-0.42-1.216-0.855C6.454,9.901,6.206,9.931,5.951,9.931c-2.191,0-3.968-1.778-3.968-3.969
	c0-2.193,1.777-3.968,3.968-3.968c0.267,0,0.528,0.028,0.78,0.079l1.652-0.24l0.519-1.05c-2.624-1.5-6.01-0.795-7.8,1.721
	c-1.906,2.677-1.279,6.393,1.399,8.3c2.066,1.47,4.837,1.47,6.903,0l4.78,4.781c0.418,0.356,1.043,0.309,1.4-0.107
	c0.316-0.372,0.316-0.92,0-1.291l-4.563-4.561l-0.13-0.068L9.03,10.533z"/>
<path d="M15.963,3.643c-0.09-0.275-0.328-0.475-0.613-0.518l-2.605-0.379l-1.166-2.357
	c-0.225-0.377-0.713-0.501-1.09-0.276c-0.111,0.068-0.209,0.162-0.275,0.276L9.047,2.746L6.442,3.125
	C6.026,3.183,5.736,3.566,5.794,3.982C5.818,4.15,5.897,4.307,6.02,4.424l1.885,1.833L7.46,8.848C7.39,9.26,7.666,9.654,8.08,9.726
	c0.165,0.028,0.338,0.002,0.486-0.078l2.327-1.22l2.332,1.224c0.109,0.056,0.23,0.086,0.354,0.084c0.16,0,0.316-0.051,0.447-0.146
	c0.234-0.169,0.352-0.456,0.301-0.741l-0.443-2.592l1.889-1.832C15.979,4.223,16.053,3.918,15.963,3.643z M12.25,5.727l0.32,1.861
	l-1.678-0.877l-1.67,0.877l0.32-1.861L8.188,4.408l1.871-0.271l0.834-1.693l0.836,1.693l1.873,0.271L12.25,5.727z"/>
</symbol>
<g id="toolbar-theme" class="theme" fill-opacity="0.8">
	<use href="#icon"/>
</g>
<g id="default-theme" class="theme" fill-opacity="1">
	<use href="#icon"/>
</g>
<g id="toolbar" class="prefer-color-scheme" fill-opacity="0.8">
	<use href="#icon"/>
</g>
<g id="default" class="prefer-color-scheme" fill-opacity="1">
	<use href="#icon"/>
</g>
</svg>
