<?xml version="1.0" encoding="utf-8"?>
<!-- Generator: Adobe Illustrator 14.0.0, SVG Export Plug-In . SVG Version: 6.00 Build 43363)  -->
<!DOCTYPE svg PUBLIC "-//W3C//DTD SVG 1.1//EN" "http://www.w3.org/Graphics/SVG/1.1/DTD/svg11.dtd">
<svg version="1.1" id="レイヤー_1" xmlns="http://www.w3.org/2000/svg" xmlns:xlink="http://www.w3.org/1999/xlink" x="0px"
	 y="0px" width="32px" height="32px" viewBox="0 0 32 32" enable-background="new 0 0 32 32" xml:space="preserve">
<path display="none" fill="#0C0C0D" d="M31.17,28.37l-9.566-9.562c3.813-5.359,2.561-12.791-2.795-16.604
	C13.454-1.605,6.019-0.353,2.206,5.006c-3.811,5.354-2.558,12.787,2.798,16.599c4.132,2.939,9.673,2.939,13.805,0l9.561,9.563
	c0.836,0.713,2.086,0.617,2.801-0.215C31.803,30.208,31.803,29.112,31.17,28.37L31.17,28.37z M11.903,19.861
	c-4.383,0-7.937-3.557-7.937-7.938c0-4.385,3.554-7.936,7.937-7.936s7.935,3.551,7.935,7.936
	C19.838,16.304,16.286,19.861,11.903,19.861z"/>
<path fill="#0C0C0D" d="M20.453,19.719l0.245-0.345c0.351-0.492,0.642-1.007,0.903-1.531l-3.506,1.838
	c-0.349,0.188-0.762,0.293-1.177,0.293c-0.15,0-0.301-0.014-0.449-0.041c-0.146-0.025-0.285-0.068-0.42-0.117
	c-1.333,0.884-2.929,1.401-4.645,1.401c-4.652,0-8.437-3.785-8.437-8.438c0-4.652,3.785-8.436,8.437-8.436
	c0.819,0,1.608,0.123,2.357,0.342l4.168-0.606l0.242-0.49c-0.052-0.039-0.099-0.082-0.151-0.12
	c-1.941-1.381-4.224-2.112-6.599-2.112c-3.69,0-7.169,1.792-9.307,4.795c-1.766,2.48-2.459,5.501-1.953,8.504
	c0.506,3.004,2.151,5.63,4.633,7.397c1.942,1.382,4.229,2.112,6.612,2.112s4.67-0.73,6.613-2.112l0.345-0.245l9.83,9.834
	C28.467,31.873,28.811,32,29.164,32c0.435,0,0.846-0.188,1.127-0.517c0.478-0.561,0.478-1.374,0.027-1.904L20.453,19.719z"/>
<path display="none" fill="#0C0C0D" d="M31.926,7.285c-0.18-0.551-0.656-0.949-1.227-1.035l-5.211-0.758l-2.332-4.715
	c-0.449-0.755-1.426-1.003-2.18-0.553c-0.223,0.136-0.418,0.324-0.551,0.553l-2.332,4.715l-5.21,0.758
	c-0.83,0.115-1.41,0.883-1.293,1.715c0.047,0.336,0.205,0.648,0.449,0.883l3.77,3.666l-0.889,5.182
	c-0.141,0.824,0.412,1.613,1.24,1.756c0.33,0.057,0.676,0.004,0.972-0.156l4.652-2.44l4.664,2.448
	c0.219,0.111,0.461,0.172,0.707,0.168c0.32,0,0.633-0.102,0.895-0.293c0.469-0.338,0.703-0.912,0.602-1.482l-0.887-5.184
	l3.777-3.664C31.957,8.445,32.105,7.836,31.926,7.285z M24.5,11.453l0.641,3.723l-3.355-1.754l-3.34,1.754l0.641-3.723l-2.71-2.636
	l3.742-0.543l1.668-3.387l1.672,3.387l3.746,0.543L24.5,11.453z"/>
<path fill="#0C0C0D" d="M16.918,18.474c-0.058,0-0.117-0.005-0.174-0.016c-0.553-0.095-0.926-0.624-0.832-1.179l0.933-5.441
	l-3.958-3.849c-0.165-0.158-0.271-0.368-0.303-0.593c-0.038-0.271,0.031-0.539,0.195-0.756c0.164-0.217,0.402-0.357,0.671-0.395
	l5.474-0.796l2.448-4.95c0.07-0.119,0.201-0.249,0.363-0.348C21.9,0.053,22.093,0,22.287,0c0.384,0,0.743,0.204,0.938,0.533
	l2.43,4.916l5.471,0.795c0.386,0.058,0.702,0.325,0.823,0.696c0.121,0.369,0.021,0.781-0.256,1.049l-3.966,3.847l0.931,5.443
	c0.069,0.386-0.085,0.765-0.4,0.993c-0.179,0.13-0.387,0.198-0.603,0.198h-0.001c-0.176,0-0.333-0.039-0.479-0.113l-4.891-2.567
	l-4.885,2.562C17.251,18.433,17.086,18.474,16.918,18.474L16.918,18.474z M18.279,15.589l4.006-2.103l4.019,2.101l-0.768-4.459
	l3.24-3.16l-4.488-0.65l-2.005-4.06l-1.999,4.06l-4.486,0.651l3.25,3.16L18.279,15.589z"/>
</svg>
